<?xml version="1.0" standalone="no"?>
<!DOCTYPE svg PUBLIC "-//W3C//DTD SVG 20010904//EN"
 "http://www.w3.org/TR/2001/REC-SVG-20010904/DTD/svg10.dtd">
<svg version="1.0" xmlns="http://www.w3.org/2000/svg"
 width="233.000000pt" height="233.000000pt" viewBox="0 0 233.000000 233.000000"
 preserveAspectRatio="xMidYMid meet">
<metadata>
Created by potrace 1.14, written by Peter Selinger 2001-2017
</metadata>
<g transform="translate(0.000000,233.000000) scale(0.100000,-0.100000)"
fill="#000000" stroke="none">
<path d="M1040 2113 c-360 -50 -663 -294 -777 -628 -13 -38 -26 -83 -29 -100
-2 -16 -8 -55 -13 -85 -9 -52 -7 -193 3 -271 16 -121 75 -269 153 -377 71
-100 228 -252 261 -252 6 0 12 -4 14 -9 6 -17 176 -91 254 -111 166 -43 283
-45 467 -5 83 17 220 79 306 137 64 44 200 182 244 248 66 102 120 226 133
308 3 21 8 41 11 46 11 17 12 251 1 316 -11 71 -59 224 -88 280 -44 85 -164
231 -243 296 -97 80 -246 152 -383 185 -82 19 -248 31 -314 22z"/>
</g>
</svg>
