<?xml version="1.0" standalone="no"?>
<!DOCTYPE svg PUBLIC "-//W3C//DTD SVG 20010904//EN"
 "http://www.w3.org/TR/2001/REC-SVG-20010904/DTD/svg10.dtd">
<svg version="1.0" xmlns="http://www.w3.org/2000/svg"
 width="180.000000pt" height="180.000000pt" viewBox="0 0 180.000000 180.000000"
 preserveAspectRatio="xMidYMid meet">
<metadata>
Created by potrace 1.14, written by Peter Selinger 2001-2017
</metadata>
<g transform="translate(0.000000,180.000000) scale(0.100000,-0.100000)"
fill="#000000" stroke="none">
<path d="M765 1753 c-163 -94 -591 -346 -628 -370 l-38 -24 6 -427 c3 -235 9
-430 13 -433 4 -4 32 -20 62 -36 30 -17 73 -40 95 -53 482 -273 586 -330 597
-330 7 0 22 7 32 15 32 25 42 18 38 -25 -2 -22 0 -40 5 -40 5 0 9 21 8 47 0
46 0 46 61 84 33 20 81 48 105 61 24 13 63 36 86 51 24 15 45 27 47 27 2 0 76
42 164 94 88 51 168 96 177 100 11 4 35 -4 61 -19 24 -14 44 -22 44 -17 0 5
-20 20 -45 33 -38 20 -45 29 -46 54 0 39 0 705 0 726 1 10 20 29 44 43 23 14
36 25 29 26 -8 0 -27 -9 -43 -21 l-29 -20 -1 30 c-3 57 -2 57 -64 91 -22 13
-58 33 -80 45 -168 94 -311 172 -370 200 -63 30 -110 56 -213 116 -18 10 -34
19 -35 19 -1 0 -38 -21 -82 -47z"/>
<path d="M945 10 c3 -5 8 -10 11 -10 2 0 4 5 4 10 0 6 -5 10 -11 10 -5 0 -7
-4 -4 -10z"/>
</g>
</svg>
