<svg id="Layer_1" data-name="Layer 1" xmlns="http://www.w3.org/2000/svg" xmlns:xlink="http://www.w3.org/1999/xlink" viewBox="0 0 232.09 205.25"><defs><style>.cls-1{fill:none;}.cls-2{fill:#252525;}.cls-3{clip-path:url(#clip-path);}.cls-4{fill:#ffcc03;}.cls-5{fill:#fcfcfc;}</style><clipPath id="clip-path" transform="translate(20.48 8.27)"><circle id="SVGID" class="cls-1" cx="93.26" cy="93.26" r="93.26"/></clipPath></defs><title>logo2</title><circle class="cls-2" cx="113.73" cy="101.52" r="93.26"/><g class="cls-3"><rect class="cls-4" x="98.33" width="33.6" height="205.25"/><rect class="cls-5" x="13.09" y="54.12" width="219" height="13.33"/><rect class="cls-5" y="136" width="217.33" height="15.33"/><rect class="cls-4" x="14.09" y="123.56" width="206.67" height="12.44"/></g><path class="cls-5" d="M128.9,116.14H117.09v-41c4.75.44,10-.42,13.45,1.64,3.67,2.15,5.7,7.1,8.77,11.27,5.63-6.62,8.75-17.12,20.94-11.6v39.78H149.14V97.46L147.9,97l-9.45,12.75L128.9,96.64Z" transform="translate(20.48 8.27)"/><path class="cls-5" d="M38,86.4l9.29-14.81c8.09,15,15.67,29.14,23.66,44-6,.29-10.82,2.23-13.42-4.16-1.07-2.63-18.66-2.32-20.58,0-4.23,5.15-5.2,5.46-13.13,3.87,2.72-5.1,5.16-10.15,8.07-14.92,1.66-2.71,1.39-4.64-.3-7.16-3.85-5.75-7.38-11.71-11.18-17.82C30.23,74,30.23,74,38,86.4Zm16.12,16.23L47.44,89.85l-6.3,12.78Z" transform="translate(20.48 8.27)"/><path class="cls-5" d="M111.35,116.58c-3.88-.55-7.18-1.08-10.49-1.44a30.19,30.19,0,0,0-3.24.34C91,115.46,83.92,117,78,115c-9.55-3.23-13.68-17.21-9.29-26.4A24.06,24.06,0,0,1,96,75c8.46,1.79,14.47,7.37,15.18,15.73S111.35,107.33,111.35,116.58ZM100.77,91.71c-5.14-6.43-15-7.38-19.75-2.83-4.14,4-4,12.84.21,16.74,4.51,4.15,12.75,3.26,17.57-2.5H85V91.71Z" transform="translate(20.48 8.27)"/><path class="cls-2" d="M100.65,91.71c-5.14-6.43-15-7.38-19.75-2.83-4.14,4-4,12.84.2,16.74,4.51,4.15,12.76,3.26,17.58-2.5H84.89V91.71Z" transform="translate(20.48 8.27)"/></svg>