<svg id="Layer_1" data-name="Layer 1" xmlns="http://www.w3.org/2000/svg" xmlns:xlink="http://www.w3.org/1999/xlink" viewBox="0 0 160.42 179.82"><defs><style>.cls-1{fill:#1f202e;}.cls-2{fill:#16a6d5;}.cls-3{isolation:isolate;font-size:110.16px;fill:#bce3f9;font-family:Megrim;}.cls-36,.cls-39,.cls-4,.cls-40,.cls-41{fill:none;stroke-miterlimit:10;}.cls-4{stroke-width:1.08px;stroke:url(#linear-gradient);}.cls-5{fill:#fff;}.cls-6{fill:url(#linear-gradient-2);}.cls-7{fill:url(#linear-gradient-3);}.cls-8{fill:url(#linear-gradient-4);}.cls-9{fill:url(#linear-gradient-5);}.cls-10{fill:url(#linear-gradient-6);}.cls-11{fill:url(#linear-gradient-7);}.cls-12{fill:url(#linear-gradient-8);}.cls-13{fill:url(#linear-gradient-9);}.cls-14{fill:url(#linear-gradient-10);}.cls-15{fill:url(#linear-gradient-11);}.cls-16{fill:url(#linear-gradient-12);}.cls-17{fill:url(#radial-gradient);}.cls-18{fill:url(#linear-gradient-13);}.cls-19{fill:url(#radial-gradient-2);}.cls-20{fill:url(#radial-gradient-3);}.cls-21{fill:url(#linear-gradient-14);}.cls-22{fill:url(#radial-gradient-4);}.cls-23{fill:url(#radial-gradient-5);}.cls-24{fill:url(#linear-gradient-15);}.cls-25{fill:url(#linear-gradient-16);}.cls-26{fill:url(#radial-gradient-6);}.cls-27{fill:url(#radial-gradient-7);}.cls-28{fill:#1a202a;}.cls-29{fill:url(#linear-gradient-17);}.cls-30{fill:url(#radial-gradient-8);}.cls-31{fill:url(#linear-gradient-18);}.cls-32{fill:url(#linear-gradient-19);}.cls-33{fill:url(#radial-gradient-9);}.cls-34{fill:url(#radial-gradient-10);}.cls-35{fill:url(#linear-gradient-20);}.cls-36,.cls-39,.cls-40,.cls-41{stroke-width:1.34px;}.cls-36{stroke:url(#linear-gradient-21);}.cls-37{fill:url(#linear-gradient-22);}.cls-38{fill:url(#radial-gradient-11);}.cls-39{stroke:#16a6d5;}.cls-40{stroke:url(#linear-gradient-23);}.cls-41{stroke:url(#linear-gradient-24);}.cls-42{fill:url(#radial-gradient-12);}.cls-43{fill:url(#linear-gradient-25);}.cls-44{fill:url(#linear-gradient-26);}.cls-45{fill:url(#linear-gradient-27);}.cls-46{fill:url(#linear-gradient-28);}.cls-47{fill:url(#linear-gradient-29);}.cls-48{fill:url(#linear-gradient-30);}.cls-49{fill:url(#radial-gradient-13);}.cls-50{fill:url(#radial-gradient-14);}.cls-51{fill:url(#linear-gradient-31);}.cls-52{fill:url(#radial-gradient-15);}.cls-53{fill:url(#linear-gradient-32);}.cls-54{fill:url(#radial-gradient-16);}.cls-55{fill:url(#radial-gradient-17);}.cls-56{fill:url(#radial-gradient-18);}.cls-57{fill:url(#radial-gradient-19);}.cls-58{fill:url(#radial-gradient-20);}</style><linearGradient id="linear-gradient" x1="25.16" y1="141.13" x2="81.24" y2="141.13" gradientTransform="matrix(1, 0, 0, -1, -0.01, 179.89)" gradientUnits="userSpaceOnUse"><stop offset="0" stop-color="#fff"/><stop offset="0.09" stop-color="#f3fafd"/><stop offset="0.27" stop-color="#d3eef7"/><stop offset="0.49" stop-color="#9fdaee"/><stop offset="0.77" stop-color="#58bfe1"/><stop offset="1" stop-color="#16a6d5"/></linearGradient><linearGradient id="linear-gradient-2" x1="-609.94" y1="-213.07" x2="-547.47" y2="-213.07" gradientTransform="matrix(0.5, -0.87, -0.87, -0.5, 108.42, -529.15)" gradientUnits="userSpaceOnUse"><stop offset="0" stop-color="#75a7c2"/><stop offset="0.08" stop-color="#6d9cb5"/><stop offset="0.23" stop-color="#587e91"/><stop offset="0.43" stop-color="#364e58"/><stop offset="0.47" stop-color="#2f444d"/><stop offset="1" stop-color="#3e545e"/><stop offset="1" stop-color="#bce4fa"/></linearGradient><linearGradient id="linear-gradient-3" x1="-624.44" y1="-234.22" x2="-606.89" y2="-234.22" gradientTransform="matrix(0.5, -0.87, -0.87, -0.5, 108.95, -529.14)" xlink:href="#linear-gradient-2"/><linearGradient id="linear-gradient-4" x1="-1473.14" y1="2774.52" x2="-1436.11" y2="2774.52" gradientTransform="matrix(1.01, -0.14, 0.58, 0.24, -71.12, -853.2)" gradientUnits="userSpaceOnUse"><stop offset="0" stop-color="#fff"/><stop offset="0.07" stop-color="#f2f6f8"/><stop offset="0.2" stop-color="#cedee5"/><stop offset="0.38" stop-color="#95b7c7"/><stop offset="0.47" stop-color="#76a1b6"/><stop offset="0.83" stop-color="#a4cde2"/><stop offset="1" stop-color="#bce4fa"/><stop offset="1" stop-color="#7498ab"/></linearGradient><linearGradient id="linear-gradient-5" x1="-1462.53" y1="2729.83" x2="-1425.24" y2="2729.83" gradientTransform="matrix(0.77, -0.62, 0.61, -0.08, -492.58, -668.17)" xlink:href="#linear-gradient-4"/><linearGradient id="linear-gradient-6" x1="1885.04" y1="-3100.34" x2="1922.06" y2="-3100.34" gradientTransform="matrix(1.03, 0.09, 0.59, -0.16, -92.64, -652.22)" xlink:href="#linear-gradient-2"/><linearGradient id="linear-gradient-7" x1="1060.78" y1="-239.74" x2="1098.15" y2="-239.74" gradientTransform="matrix(0.67, 0.54, 0.55, 0.03, -497.62, -563.12)" xlink:href="#linear-gradient-2"/><linearGradient id="linear-gradient-8" x1="1212.19" y1="-1900.65" x2="1249.21" y2="-1900.65" gradientTransform="matrix(0.78, 0.14, 0.45, -0.24, -57.74, -606.69)" xlink:href="#linear-gradient-2"/><linearGradient id="linear-gradient-9" x1="-4628.31" y1="1842.05" x2="-4380.68" y2="1842.05" gradientTransform="matrix(-0.14, -0.08, -0.13, 0.23, -318.69, -619.22)" xlink:href="#linear-gradient-2"/><linearGradient id="linear-gradient-10" x1="521.99" y1="252.77" x2="504.08" y2="285.19" gradientTransform="matrix(0.95, 0.93, 0.94, -0.16, -610.83, -407.84)" gradientUnits="userSpaceOnUse"><stop offset="0" stop-color="#fff"/><stop offset="0.05" stop-color="#f2f6f8"/><stop offset="0.14" stop-color="#cedee5"/><stop offset="0.27" stop-color="#95b7c7"/><stop offset="0.34" stop-color="#76a1b6"/><stop offset="0.78" stop-color="#a4cde2"/><stop offset="1" stop-color="#bce4fa"/><stop offset="1" stop-color="#7498ab"/></linearGradient><linearGradient id="linear-gradient-11" x1="273.99" y1="-351.37" x2="311.01" y2="-351.37" gradientTransform="matrix(0.9, 0.39, 0.52, -0.67, -61.9, -312.99)" xlink:href="#linear-gradient-4"/><linearGradient id="linear-gradient-12" x1="510.89" y1="-180.17" x2="548.37" y2="-180.17" gradientTransform="matrix(1.6, 1.17, 1.19, 0.2, -590.92, -433.33)" xlink:href="#linear-gradient-4"/><radialGradient id="radial-gradient" cx="531.14" cy="-2757.48" fx="601.7372904154123" fy="-2804.4463148495784" r="84.79" gradientTransform="matrix(0.12, 0, 0, -0.23, -15.79, -612.61)" gradientUnits="userSpaceOnUse"><stop offset="0" stop-color="#fff"/><stop offset="0.27" stop-color="#f2fafe"/><stop offset="0.77" stop-color="#ceebfb"/><stop offset="1" stop-color="#bce4fa"/><stop offset="1" stop-color="#fff"/></radialGradient><linearGradient id="linear-gradient-13" x1="8889.27" y1="-1569.56" x2="9156.81" y2="-1569.56" gradientTransform="matrix(0.07, 0.04, 0.08, -0.15, -391.66, -570.31)" xlink:href="#radial-gradient"/><radialGradient id="radial-gradient-2" cx="-3936.87" cy="-802.99" fx="-3866.273161710249" fy="-849.9562912762667" r="84.79" gradientTransform="matrix(0, -0.16, -0.32, 0, -253.74, -568.39)" xlink:href="#radial-gradient"/><radialGradient id="radial-gradient-3" cx="-5653.67" cy="-2004.83" fx="-5583.0726284140155" fy="-2051.7954916347207" r="84.79" gradientTransform="matrix(0, -0.12, -0.15, 0, -296.31, -570.74)" xlink:href="#radial-gradient"/><linearGradient id="linear-gradient-14" x1="-4985.17" y1="4621" x2="-4977.67" y2="4864.61" gradientTransform="matrix(0, -0.14, -0.09, 0, 465.28, -556.5)" gradientUnits="userSpaceOnUse"><stop offset="0.47" stop-color="#2f444d"/><stop offset="0.63" stop-color="#5d717b"/><stop offset="1" stop-color="#cfe1ed"/></linearGradient><radialGradient id="radial-gradient-4" cx="-206.59" cy="-2742.35" fx="-123.3014159021685" fy="-2797.7599921523743" r="100.04" gradientTransform="matrix(0.05, -0.03, -0.12, -0.2, -242.2, -541.76)" xlink:href="#radial-gradient"/><radialGradient id="radial-gradient-5" cx="-17257.56" cy="-2478.16" fx="-17186.763961807315" fy="-2525.2570220318894" r="85.03" gradientTransform="matrix(0, -0.04, -0.13, 0, -325.69, -575.75)" xlink:href="#radial-gradient"/><linearGradient id="linear-gradient-15" x1="-623.93" y1="-218.08" x2="-548.14" y2="-218.08" gradientTransform="matrix(0.49, -0.87, -0.87, -0.49, 99.83, -529.46)" xlink:href="#linear-gradient-4"/><linearGradient id="linear-gradient-16" x1="77.52" y1="-294.55" x2="129.41" y2="-350.83" gradientTransform="matrix(0.29, 0.5, 0.17, -0.87, 39.2, -281.87)" gradientUnits="userSpaceOnUse"><stop offset="0" stop-color="#fff"/><stop offset="0.07" stop-color="#f2f6f8"/><stop offset="0.2" stop-color="#cedee5"/><stop offset="0.38" stop-color="#95b7c7"/><stop offset="0.47" stop-color="#76a1b6"/><stop offset="0.82" stop-color="#a4cde2"/><stop offset="1" stop-color="#bce4fa"/><stop offset="1" stop-color="#7498ab"/></linearGradient><radialGradient id="radial-gradient-6" cx="-5078.82" cy="2014.53" fx="-5008.224325541928" fy="1967.5722875427887" r="84.79" gradientTransform="matrix(0, -0.14, -0.23, 0, 489.67, -578.37)" xlink:href="#radial-gradient"/><radialGradient id="radial-gradient-7" cx="-6031.45" cy="2973.52" fx="-5960.857002501286" fy="2926.554025181818" r="84.79" gradientTransform="matrix(0, -0.12, -0.15, 0, 504.57, -561.37)" xlink:href="#radial-gradient"/><linearGradient id="linear-gradient-17" x1="-14862.48" y1="1244.43" x2="-14708.85" y2="1244.43" gradientTransform="matrix(0.14, 0.08, 0.13, -0.23, 2007.15, 1520.71)" xlink:href="#linear-gradient-2"/><radialGradient id="radial-gradient-8" cx="1704.68" cy="-1018.06" r="1.76" gradientTransform="matrix(-1, 0.02, 0.02, 1, 1854, 1045.72)" xlink:href="#linear-gradient"/><linearGradient id="linear-gradient-18" x1="-490.71" y1="-1921.07" x2="-452.88" y2="-1921.07" gradientTransform="matrix(-0.5, 0.87, 0.87, 0.5, 1554.63, 1464.45)" xlink:href="#linear-gradient-2"/><linearGradient id="linear-gradient-19" x1="-499.46" y1="-1924.94" x2="-488.82" y2="-1924.94" gradientTransform="matrix(-0.5, 0.87, 0.87, 0.5, 1552.04, 1465.31)" xlink:href="#linear-gradient-2"/><radialGradient id="radial-gradient-9" cx="-12209.48" cy="-12036.4" fx="-12166.723795012622" fy="-12064.85196526356" r="51.36" gradientTransform="matrix(0, 0.12, 0.15, 0, 1959.34, 1506.04)" xlink:href="#radial-gradient"/><radialGradient id="radial-gradient-10" cx="-35057.75" cy="-13730.32" fx="-35014.86700427391" fy="-13758.847918238609" r="51.51" gradientTransform="matrix(0, 0.04, 0.13, 0, 2010.42, 1474.46)" xlink:href="#radial-gradient"/><linearGradient id="linear-gradient-20" x1="1029.54" y1="410.28" x2="1052.25" y2="410.28" gradientTransform="matrix(-1.61, -1.15, -1.19, -0.19, 2273.63, 1331.81)" xlink:href="#linear-gradient-4"/><linearGradient id="linear-gradient-21" x1="1056.56" y1="-1392.78" x2="1063.47" y2="-1392.78" gradientTransform="matrix(-3.91, 1.79, -1.66, 2.02, 1983.69, 967.57)" xlink:href="#linear-gradient"/><linearGradient id="linear-gradient-22" x1="-17030.71" y1="3217.09" x2="-17026.17" y2="3364.66" gradientTransform="matrix(0, 0.14, 0.09, 0, -201.19, 2441.21)" xlink:href="#linear-gradient-14"/><radialGradient id="radial-gradient-11" cx="18912.44" cy="-9060.52" fx="18962.89267197115" fy="-9094.083511105386" r="60.6" gradientTransform="matrix(-0.04, 0.03, 0.12, 0.19, 1984.68, 1412.95)" xlink:href="#radial-gradient"/><linearGradient id="linear-gradient-23" x1="1749.3" y1="-921.66" x2="1750.64" y2="-921.66" gradientTransform="matrix(-1, 0.02, 0.02, 1, 1854, 1045.72)" xlink:href="#linear-gradient"/><linearGradient id="linear-gradient-24" x1="83.43" y1="-22.16" x2="90.34" y2="-22.16" gradientTransform="matrix(-3.97, -1.63, 1.74, 1.95, 521.49, 307.49)" xlink:href="#linear-gradient"/><radialGradient id="radial-gradient-12" cx="1749.97" cy="-939.61" r="1.76" gradientTransform="matrix(-1, 0.02, 0.02, 1, 1854, 1045.72)" xlink:href="#linear-gradient"/><linearGradient id="linear-gradient-25" x1="-3305.48" y1="7648.65" x2="-3283.05" y2="7648.65" gradientTransform="matrix(-1.01, 0.14, -0.58, -0.24, 1138.69, 2438.47)" xlink:href="#linear-gradient-4"/><linearGradient id="linear-gradient-26" x1="6314.6" y1="-9504.81" x2="6337.03" y2="-9504.81" gradientTransform="matrix(-1.03, -0.09, -0.59, 0.16, 1160.83, 2237.02)" xlink:href="#linear-gradient-2"/><linearGradient id="linear-gradient-27" x1="2635.61" y1="926.67" x2="2658.01" y2="926.67" gradientTransform="matrix(0.14, -0.77, -0.24, -0.45, -71.78, 2593.74)" xlink:href="#linear-gradient-2"/><linearGradient id="linear-gradient-28" x1="4701.32" y1="-5869.98" x2="4723.74" y2="-5869.98" gradientTransform="matrix(-0.78, -0.14, -0.45, 0.24, 1128.6, 2205.18)" xlink:href="#linear-gradient-2"/><linearGradient id="linear-gradient-29" x1="1432.19" y1="907.91" x2="1455.26" y2="907.91" gradientTransform="matrix(-0.96, -0.92, -0.94, 0.16, 2294.39, 1309.41)" xlink:href="#linear-gradient-4"/><linearGradient id="linear-gradient-30" x1="1706.92" y1="-960.96" x2="1729.34" y2="-960.96" gradientTransform="matrix(-0.87, -0.5, -0.5, 0.87, 1121.8, 1810.19)" xlink:href="#linear-gradient-4"/><radialGradient id="radial-gradient-13" cx="8717.62" cy="-2895.05" fx="8760.382582981709" fy="-2923.4972529640922" r="51.36" gradientTransform="matrix(0, -0.29, -0.09, 0, -170.56, 2628.95)" xlink:href="#radial-gradient"/><radialGradient id="radial-gradient-14" cx="8277.78" cy="-9099.04" fx="8320.543096445857" fy="-9127.490741417372" r="51.36" gradientTransform="matrix(-0.12, 0, 0, 0.23, 1083.38, 2200.34)" xlink:href="#radial-gradient"/><linearGradient id="linear-gradient-31" x1="31880.21" y1="-965.73" x2="32042.27" y2="-965.73" gradientTransform="matrix(-0.07, -0.04, -0.08, 0.15, 2077.16, 1469.25)" xlink:href="#radial-gradient"/><radialGradient id="radial-gradient-15" cx="-8638.91" cy="-6808.01" fx="-8596.151484974469" fy="-6836.462634975338" r="51.36" gradientTransform="matrix(0, 0.16, 0.26, 0, 1916.76, 1503.71)" xlink:href="#radial-gradient"/><linearGradient id="linear-gradient-32" x1="-499.92" y1="-1914.12" x2="-453.69" y2="-1914.12" gradientTransform="matrix(-0.5, 0.87, 0.87, 0.5, 1552.48, 1465.3)" xlink:href="#linear-gradient-4"/><radialGradient id="radial-gradient-16" cx="1704.68" cy="-965.76" r="1.76" gradientTransform="matrix(-1, 0.02, 0.02, 1, 1854, 1045.72)" xlink:href="#linear-gradient"/><radialGradient id="radial-gradient-17" cx="-20286.77" cy="2136.46" fx="-20244.003318197534" fy="2108.0153761235947" r="51.36" gradientTransform="matrix(0, 0.12, 0.15, 0, -213.13, 2429.39)" xlink:href="#radial-gradient"/><radialGradient id="radial-gradient-18" cx="-20467.92" cy="2136.46" fx="-20425.1549076517" fy="2108.013573887779" r="51.36" gradientTransform="matrix(0, 0.12, 0.15, 0, -231.74, 2440.4)" xlink:href="#radial-gradient"/><radialGradient id="radial-gradient-19" cx="1749.11" cy="-1045.11" r="0.96" gradientTransform="matrix(-1, 0.02, 0.02, 1, 1854, 1045.72)" gradientUnits="userSpaceOnUse"><stop offset="0" stop-color="#75a7c2"/><stop offset="0.15" stop-color="#6d9bb5"/><stop offset="0.42" stop-color="#577a91"/><stop offset="0.78" stop-color="#334658"/><stop offset="1" stop-color="#1c2433"/></radialGradient><radialGradient id="radial-gradient-20" cx="1443.74" cy="902.44" fx="1443.738824580607" fy="902.4358464462357" r="9.89" gradientTransform="matrix(-0.96, -0.92, -0.94, 0.16, 2294.39, 1309.41)" xlink:href="#radial-gradient"/></defs><title>logo</title><polygon class="cls-1" points="150.52 129.47 150.52 44.37 76.83 1.82 3.13 44.37 3.13 129.47 76.83 172.02 150.52 129.47"/><path class="cls-2" d="M80.9,23.41Q67.24,31.83,53.38,40c-4.6,2.74-9.23,5.42-13.87,8.09L25.51,56l.12-.21c-.05,5.37-.09,10.75-.07,16.12s.06,10.76.12,16.13l.16,16.13.09,16.13-.27-.48q6.93,3.94,13.82,8c4.6,2.7,9.2,5.32,13.77,8Q67,143.86,80.66,152.12l0,.09q-14-7.68-27.85-15.57c-4.63-2.61-9.23-5.26-13.84-7.91s-9.22-5.3-13.81-8l-.27-.16v-.29l.09-16.13L25.09,88c.06-5.37.11-10.75.12-16.13s0-10.75-.07-16.12v-.14l.13-.08,13.79-8.27c4.61-2.72,9.22-5.44,13.86-8.1q13.89-8.05,27.93-15.86Z" transform="translate(-0.01 0)"/><text class="cls-3" transform="translate(23.18 132.31) scale(1.43 1)">Y</text><line class="cls-4" x1="80.96" y1="22.73" x2="25.42" y2="54.8"/><path class="cls-5" d="M4,6.77" transform="translate(-0.01 0)"/><rect class="cls-6" x="0.74" y="44.14" width="5.7" height="68.84" transform="translate(-0.99 0.05) rotate(-0.72)"/><rect class="cls-7" x="1.11" y="112.66" width="5.7" height="16.98" transform="translate(-1.53 0.06) rotate(-0.72)"/><rect class="cls-8" x="39.06" y="16.07" width="44.01" height="2.45" transform="matrix(0.86, -0.51, 0.51, 0.86, -0.29, 33.57)"/><polygon class="cls-9" points="75.41 2.32 38.89 24.02 37.64 21.91 74.73 0 75.41 2.32"/><rect class="cls-10" x="39.45" y="16.35" width="44.71" height="1.64" transform="translate(-0.1 33.98) rotate(-30.72)"/><polygon class="cls-11" points="107.43 18.34 74.73 0 74.18 2.09 106.26 20.43 107.43 18.34"/><rect class="cls-12" x="29.25" y="20.43" width="33.8" height="2.41" transform="translate(-4.58 26.61) rotate(-30.72)"/><polygon class="cls-13" points="45.88 152.35 77.94 169.88 81.8 167.4 48.11 148.38 45.88 152.35"/><polygon class="cls-14" points="150.24 41.14 102.65 14.76 99.71 19.99 150.29 47.2 150.24 41.14"/><rect class="cls-15" x="-0.72" y="33.28" width="39.36" height="6.73" transform="translate(-16.07 14.83) rotate(-30.72)"/><polygon class="cls-16" points="80.78 169.62 3.3 126.05 1.37 129.51 76.92 172.02 80.78 169.62"/><rect class="cls-17" x="32.99" y="16.28" width="28.41" height="3.95" transform="translate(-2.71 26.67) rotate(-30.72)"/><polygon class="cls-18" points="100.17 15.93 83.79 7.1 80.87 8.89 98.75 18.45 100.17 15.93"/><rect class="cls-19" x="2.22" y="44.88" width="5.6" height="38.67" transform="translate(-0.81 0.07) rotate(-0.72)"/><rect class="cls-20" x="5.38" y="86.27" width="2.64" height="28.04" transform="translate(-1.27 0.09) rotate(-0.72)"/><rect class="cls-21" x="31.4" y="123.85" width="1.61" height="33.5" transform="translate(-106.19 99.92) rotate(-60.72)"/><polygon class="cls-22" points="74.18 2.09 61.32 9.73 63.34 13.12 78.57 4.2 74.18 2.09"/><polygon class="cls-23" points="4.79 117.49 4.89 125.85 7.57 127.24 7.16 117.38 4.79 117.49"/><polygon class="cls-24" points="0.26 43.89 1.37 129.62 4.24 131.12 3.14 43.77 0.26 43.89"/><rect class="cls-25" x="-1.02" y="36.32" width="28.85" height="2.85" transform="translate(-17.41 12.14) rotate(-30.72)"/><rect class="cls-26" x="21.16" y="119.52" width="4.06" height="33.87" transform="translate(-107.18 89.94) rotate(-60.72)"/><rect class="cls-27" x="54.62" y="140.32" width="2.64" height="28.04" transform="translate(-106.04 127.65) rotate(-60.72)"/><rect class="cls-28" x="0.04" y="82.92" width="9.18" height="5.04" transform="translate(-1.08 0.06) rotate(-0.72)"/><polygon class="cls-29" points="100.15 50.49 79.78 39.58 77.03 40.98 98.82 52.91 100.15 50.49"/><circle class="cls-30" cx="127.88" cy="64.45" r="1.76"/><rect class="cls-31" x="125.11" y="74.48" width="3.45" height="41.7" transform="translate(-2.03 2.74) rotate(-1.23)"/><rect class="cls-32" x="124.65" y="64.39" width="3.45" height="10.28" transform="translate(-1.47 2.73) rotate(-1.23)"/><rect class="cls-33" x="124.03" y="73.69" width="1.6" height="16.98" transform="translate(-1.74 2.7) rotate(-1.23)"/><polygon class="cls-34" points="125.88 71.75 125.77 66.69 124.14 65.86 124.44 71.83 125.88 71.75"/><polygon class="cls-35" points="78.67 40.16 126.18 66.24 126.86 63.79 81.35 38.8 78.67 40.16"/><line class="cls-36" x1="158.29" y1="46.01" x2="127.88" y2="64.45"/><rect class="cls-37" x="108.67" y="47.76" width="0.98" height="20.29" transform="translate(5.86 125.72) rotate(-61.23)"/><polygon class="cls-38" points="85.86 141.19 92.21 137.33 90.97 135.29 83.44 139.78 85.86 141.19"/><polyline class="cls-39" points="37.57 118.2 84.29 143.85 129 116.73 127.88 64.45 82.04 39.28"/><line class="cls-40" x1="84.29" y1="143.85" x2="85.06" y2="179.81"/><line class="cls-41" x1="160.09" y1="133.97" x2="129" y2="116.73"/><circle class="cls-42" cx="84.29" cy="143.85" r="1.76"/><rect class="cls-43" x="78.87" y="132.2" width="26.66" height="1.48" transform="matrix(0.86, -0.52, 0.52, 0.86, -55.57, 67.07)"/><rect class="cls-44" x="78.36" y="132.34" width="27.08" height="0.99" transform="matrix(0.86, -0.52, 0.52, 0.86, -55.57, 66.9)"/><rect class="cls-45" x="75.78" y="127.7" width="1.46" height="20.39" transform="translate(-81.19 138.6) rotate(-61.23)"/><rect class="cls-46" x="89.05" y="127.41" width="20.57" height="1.47" transform="translate(-51.98 69.88) rotate(-31.16)"/><polygon class="cls-47" points="37.57 118.2 67.15 134.51 68.89 131.35 37.5 114.56 37.57 118.2"/><rect class="cls-48" x="105.58" y="117.93" width="22.86" height="5.25" transform="matrix(0.86, -0.52, 0.52, 0.86, -45.56, 78.14)"/><rect class="cls-49" x="66.25" y="113.03" width="0.9" height="41.55" transform="translate(-82.7 127.87) rotate(-61.23)"/><rect class="cls-50" x="92.13" y="130.91" width="17.21" height="2.39" transform="matrix(0.86, -0.52, 0.52, 0.86, -53.9, 71.37)"/><polygon class="cls-51" points="68.65 133.79 78.62 139.05 80.38 137.95 69.49 132.25 68.65 133.79"/><rect class="cls-52" x="124.98" y="92.32" width="2.76" height="23.42" transform="translate(-2.21 2.74) rotate(-1.23)"/><rect class="cls-53" x="126.71" y="63.79" width="1.73" height="52.38" transform="translate(-1.91 2.76) rotate(-1.23)"/><circle class="cls-54" cx="129" cy="116.73" r="1.76"/><rect class="cls-55" x="112.51" y="50.64" width="1.6" height="16.98" transform="translate(6.93 129.99) rotate(-61.23)"/><rect class="cls-56" x="93.89" y="40.43" width="1.6" height="16.98" transform="translate(6.23 108.38) rotate(-61.23)"/><circle class="cls-57" cx="82.88" cy="38.36" r="0.96"/><polygon class="cls-58" points="37.52 118.2 67.1 134.51 68.83 131.35 37.44 114.56 37.52 118.2"/></svg>