<?xml version="1.0" encoding="utf-8"?>
<!-- Generator: Adobe Illustrator 23.0.3, SVG Export Plug-In . SVG Version: 6.00 Build 0)  -->
<svg version="1.2" baseProfile="tiny" id="Layer_1" xmlns="http://www.w3.org/2000/svg" xmlns:xlink="http://www.w3.org/1999/xlink"
	 x="0px" y="0px" viewBox="0 0 14.3 14" xml:space="preserve" width="20px" height="18px">
<path fill-rule="evenodd" fill="#24292F" d="M7,0C3.1,0,0,3.2,0,7.1c0,3.1,2,5.8,4.8,6.7c0.3,0.1,0.5-0.2,0.5-0.3c0-0.2,0-0.7,0-1.3
	c-1.9,0.4-2.4-0.8-2.4-0.8c-0.3-0.8-0.8-1-0.8-1c-0.6-0.4,0-0.4,0-0.4c0.7,0,1.1,0.7,1.1,0.7c0.6,1.1,1.6,0.8,2,0.6
	c0.1-0.5,0.2-0.8,0.4-0.9C4.2,10,2.5,9.4,2.5,6.7c0-0.8,0.3-1.4,0.7-1.9C3.2,4.6,2.9,3.9,3.3,2.9c0,0,0.6-0.2,1.9,0.7
	C5.8,3.5,6.4,3.4,7,3.4c0.6,0,1.2,0.1,1.8,0.2c1.3-0.9,1.9-0.7,1.9-0.7c0.4,1,0.1,1.7,0.1,1.9c0.5,0.5,0.7,1.1,0.7,1.9
	c0,2.7-1.6,3.3-3.2,3.5c0.3,0.2,0.5,0.6,0.5,1.3c0,0.9,0,1.7,0,1.9c0,0.2,0.1,0.4,0.5,0.3C12,12.8,14,10.2,14,7.1C14,3.2,10.9,0,7,0
	z"/>
</svg>
